<?xml version="1.0" standalone="no"?>
<!DOCTYPE svg PUBLIC "-//W3C//DTD SVG 20010904//EN"
 "http://www.w3.org/TR/2001/REC-SVG-20010904/DTD/svg10.dtd">
<svg version="1.0" xmlns="http://www.w3.org/2000/svg"
 width="577.000000pt" height="433.000000pt" viewBox="0 0 577.000000 433.000000"
 preserveAspectRatio="xMidYMid meet">

<g transform="translate(0.000000,433.000000) scale(0.100000,-0.100000)"
fill="#000000" stroke="none">
<path d="M2622 4058 c3 -88 4 -93 26 -96 16 -3 22 -10 22 -29 l0 -26 21 27
c18 23 28 26 80 26 l59 0 0 95 0 95 -105 0 -106 0 3 -92z m102 10 c-3 -4 -11
-5 -19 -1 -21 7 -19 12 4 10 11 0 18 -5 15 -9z"/>
<path d="M2128 4038 c-2 -28 -7 -34 -30 -36 -39 -5 -37 -32 2 -32 27 0 30 -3
30 -30 0 -20 5 -30 15 -30 10 0 15 10 15 30 0 27 3 30 30 30 20 0 30 5 30 15
0 10 -10 15 -29 15 -26 0 -30 4 -33 32 -4 43 -26 48 -30 6z"/>
<path d="M3737 4040 c-14 -11 -27 -30 -29 -43 -3 -20 -9 -22 -75 -25 -60 -2
-75 -6 -83 -22 -9 -17 -21 -20 -75 -20 l-65 0 0 -375 c0 -368 0 -375 20 -375
20 0 20 7 20 360 l0 360 313 -2 312 -3 3 -307 2 -308 -70 0 -71 0 3 -42 3 -43
68 -3 67 -3 0 -34 0 -35 -280 0 c-273 0 -280 0 -280 -20 0 -20 7 -20 295 -20
l295 0 0 55 0 54 253 3 c231 3 256 5 297 24 l45 21 -40 19 c-35 17 -70 19
-298 22 l-258 3 3 75 3 75 258 3 c141 2 260 6 264 10 3 3 -114 6 -261 6 l-267
0 3 23 c3 22 6 22 168 27 l165 6 -167 2 -168 2 0 210 0 210 -54 0 c-30 0 -56
-3 -59 -7 -2 -5 -2 -2 -1 5 9 34 -7 42 -82 42 -66 0 -74 2 -74 19 0 24 -29 57
-56 65 -13 4 -30 -1 -47 -14z m60 -36 c3 -8 -1 -22 -9 -30 -13 -14 -17 -14
-32 1 -13 13 -14 20 -5 31 15 19 38 18 46 -2z m753 -748 c19 -1 -107 -2 -280
-2 -271 0 -288 1 -120 6 184 5 320 4 400 -4z m110 -13 c6 -5 -30 -33 -42 -33
-4 0 -8 12 -8 26 0 22 3 24 23 18 12 -3 24 -9 27 -11z m-81 -28 c2 -3 -110 -5
-250 -4 -140 0 -246 3 -237 7 19 8 479 4 487 -3z m-516 -2 c-7 -2 -19 -2 -25
0 -7 3 -2 5 12 5 14 0 19 -2 13 -5z"/>
<path d="M2338 3916 c-140 -39 -227 -180 -198 -320 10 -50 23 -74 94 -175 20
-29 31 -58 35 -98 l6 -58 135 0 135 0 6 45 c7 58 29 108 66 151 68 78 90 182
59 276 -45 134 -202 218 -338 179z m189 -34 c52 -27 116 -100 131 -150 29 -96
8 -187 -60 -268 -19 -23 -41 -56 -48 -73 l-12 -31 -128 0 c-126 0 -128 0 -134
23 -3 13 -23 46 -44 73 -79 100 -99 179 -67 275 22 65 92 139 156 162 58 22
151 16 206 -11z m3 -572 l0 -30 -120 0 -120 0 0 30 0 30 120 0 120 0 0 -30z"/>
<path d="M2928 3853 c84 -2 219 -2 300 0 81 1 12 3 -153 3 -165 0 -231 -2
-147 -3z"/>
<path d="M3078 3793 c57 -2 147 -2 200 0 53 1 7 3 -103 3 -110 0 -154 -2 -97
-3z"/>
<path d="M1530 3750 c0 -6 103 -10 290 -10 187 0 290 4 290 10 0 6 -103 10
-290 10 -187 0 -290 -4 -290 -10z"/>
<path d="M3536 3731 c-10 -11 -24 -17 -32 -14 -18 7 -18 -11 1 -27 12 -10 19
-7 39 17 14 15 26 31 26 36 0 13 -17 7 -34 -12z"/>
<path d="M3590 3735 c0 -13 32 -15 230 -15 198 0 230 2 230 15 0 13 -32 15
-230 15 -198 0 -230 -2 -230 -15z"/>
<path d="M1735 3690 c-4 -7 60 -10 184 -10 121 0 191 4 191 10 0 6 -68 10
-184 10 -113 0 -187 -4 -191 -10z"/>
<path d="M3270 3660 c0 -27 -3 -30 -30 -30 -20 0 -30 -5 -30 -15 0 -10 10 -15
30 -15 28 0 30 -3 30 -35 0 -46 27 -49 32 -2 2 27 8 33 31 35 38 5 36 32 -3
32 -27 0 -30 3 -30 30 0 20 -5 30 -15 30 -10 0 -15 -10 -15 -30z"/>
<path d="M1730 3593 c-69 -26 -115 -101 -107 -176 8 -88 74 -147 164 -147 86
0 141 42 164 125 19 69 -28 162 -98 191 -32 14 -95 17 -123 7z m50 -38 c0 -31
-3 -35 -25 -35 -31 0 -33 22 -5 50 27 27 30 26 30 -15z m64 -27 c-12 -19 -42
-7 -47 19 -8 42 4 49 29 18 13 -16 21 -32 18 -37z m-117 27 c-12 -25 -31 -33
-42 -16 -5 9 31 41 46 41 4 0 2 -11 -4 -25z m147 10 c10 -7 15 -18 11 -24 -10
-17 -21 -13 -33 14 -13 28 -6 31 22 10z m-186 -44 c8 -5 12 -22 10 -42 -3 -30
-6 -34 -36 -37 -31 -3 -33 -2 -27 20 22 70 27 76 53 59z m248 -49 c6 -31 5
-32 -25 -32 -23 0 -31 5 -31 18 0 9 -3 27 -6 39 -4 15 -1 22 13 25 25 6 41
-11 49 -50z m-172 32 c10 -4 16 -18 16 -35 0 -26 -3 -29 -35 -29 -36 0 -40 6
-29 48 6 22 20 27 48 16z m94 -31 c3 -31 1 -33 -27 -33 -27 0 -31 3 -31 28 0
35 8 44 35 40 15 -2 21 -12 23 -35z m-163 -89 c0 -32 -3 -39 -20 -39 -14 0
-23 10 -31 35 -14 43 -13 46 23 44 26 -1 28 -4 28 -40z m85 5 c0 -25 -4 -29
-29 -29 -23 0 -30 6 -35 25 -9 35 -2 42 34 37 25 -4 30 -9 30 -33z m80 5 c0
-31 -3 -34 -30 -34 -27 0 -30 3 -30 33 0 29 3 32 30 33 28 2 30 -1 30 -32z
m80 14 c0 -22 -21 -68 -31 -68 -27 0 -38 14 -33 39 10 45 11 47 38 47 18 0 26
-5 26 -18z m-160 -93 c0 -38 -16 -40 -39 -3 -11 17 -11 22 1 29 26 17 38 9 38
-26z m54 26 c17 -7 17 -9 -7 -37 l-26 -29 -1 38 c0 38 2 41 34 28z m-104 -44
c0 -8 -14 -2 -38 16 -11 8 -11 12 0 18 13 8 38 -14 38 -34z m160 23 c0 -9 -31
-30 -45 -30 -3 0 -1 9 5 20 11 20 40 28 40 10z"/>
<path d="M3536 3551 c-10 -11 -24 -17 -32 -14 -19 7 -18 -11 2 -28 14 -12 20
-9 40 16 13 17 24 33 24 38 0 13 -17 7 -34 -12z"/>
<path d="M3590 3535 c0 -13 32 -15 230 -15 198 0 230 2 230 15 0 13 -32 15
-230 15 -198 0 -230 -2 -230 -15z"/>
<path d="M3537 3370 c-9 -13 -20 -18 -31 -14 -11 4 -16 1 -16 -10 0 -38 48
-28 71 15 13 26 -7 34 -24 9z"/>
<path d="M3590 3335 c0 -13 31 -15 231 -15 180 0 230 3 227 13 -4 9 -61 13
-231 15 -198 2 -227 0 -227 -13z"/>
<path d="M3854 3266 c-10 -25 0 -61 19 -64 14 -3 17 4 17 37 0 30 -4 41 -15
41 -9 0 -18 -6 -21 -14z m26 -32 c0 -14 -4 -23 -10 -19 -5 3 -10 15 -10 26 0
10 5 19 10 19 6 0 10 -12 10 -26z"/>
<path d="M2330 3232 c0 -5 6 -16 13 -26 20 -27 124 -19 145 12 l14 22 -86 0
c-47 0 -86 -4 -86 -8z"/>
<path d="M2750 3209 c-88 -23 -216 -82 -297 -137 -92 -63 -162 -133 -346 -347
-185 -215 -234 -259 -304 -277 -34 -8 -41 -13 -30 -20 31 -17 203 -48 299 -55
l97 -6 17 -56 c23 -81 76 -176 144 -262 33 -40 76 -105 95 -143 31 -61 35 -77
35 -147 0 -45 4 -79 10 -79 13 0 89 98 134 173 l36 62 0 -60 c0 -87 -19 -224
-35 -254 -21 -42 -67 -78 -111 -90 -23 -6 -95 -13 -160 -15 -128 -5 -189 -19
-257 -59 -48 -28 -117 -100 -117 -120 1 -6 37 -41 81 -77 45 -36 88 -73 97
-82 9 -10 24 -18 34 -18 11 0 18 -7 18 -19 0 -16 -11 -22 -53 -31 -323 -67
-370 -500 -69 -638 70 -32 172 -35 250 -8 70 24 153 100 189 174 52 105 33
273 -39 349 -27 29 -18 38 24 24 85 -28 210 -44 343 -45 136 -1 300 18 311 35
3 5 104 9 225 9 135 0 219 4 219 10 0 6 -62 11 -152 12 l-153 3 105 54 c171
87 328 206 315 239 -4 12 -3 12 9 3 17 -14 29 0 20 22 -8 23 -80 77 -143 107
-75 37 -131 49 -248 55 -166 8 -206 19 -250 67 -30 32 -43 70 -50 152 l-6 72
102 68 c117 78 273 222 337 312 84 117 134 259 134 379 0 116 -53 270 -122
355 -38 49 -134 115 -189 131 -30 10 -41 19 -49 45 -17 51 -92 111 -168 134
-85 27 -229 26 -332 -1z m355 -38 c161 -71 167 -190 19 -369 -223 -269 -523
-402 -909 -403 -120 -1 -339 21 -353 35 -2 3 9 11 25 20 37 19 109 95 292 308
204 238 325 333 503 395 105 37 143 42 263 39 88 -2 120 -7 160 -25z m235
-192 c105 -56 169 -136 209 -259 41 -126 37 -269 -11 -385 -38 -90 -125 -209
-216 -296 -83 -79 -258 -209 -281 -209 -6 0 -11 20 -11 47 0 42 4 51 54 103
55 57 104 141 126 218 10 32 18 42 35 42 44 0 57 22 66 111 4 46 13 101 19
123 10 32 9 41 -4 55 -13 13 -20 13 -36 3 -27 -16 -27 -17 -22 22 2 19 -2 106
-8 193 -7 87 -12 165 -12 173 4 46 15 90 24 90 6 0 36 -14 68 -31z m-105 -292
c19 -389 -82 -670 -273 -764 -49 -24 -69 -28 -142 -28 -65 1 -96 6 -132 22
-62 28 -130 93 -173 162 -32 54 -86 200 -98 266 l-6 31 117 27 c142 34 262 85
376 161 95 63 222 184 276 263 33 49 35 50 42 27 3 -13 9 -88 13 -167z m66
-218 c-5 -19 -12 -65 -16 -104 -4 -38 -12 -76 -17 -82 -15 -18 -41 -16 -34 2
3 8 10 54 17 102 9 68 16 92 33 105 26 21 27 19 17 -23z m-906 -140 c4 -22 4
-43 1 -46 -12 -13 -36 21 -36 52 0 60 25 57 35 -6z m-65 11 c0 -46 20 -81 51
-87 24 -4 32 -16 54 -73 32 -85 74 -152 132 -211 l44 -46 -23 -39 c-12 -21
-38 -61 -58 -89 l-35 -49 -6 56 c-8 73 -46 150 -120 244 -79 99 -117 162 -145
242 l-23 67 37 6 c83 14 92 12 92 -21z m680 -557 c10 -150 22 -195 66 -243 36
-40 66 -54 142 -65 23 -4 42 -11 42 -15 0 -14 -112 -110 -180 -155 -174 -113
-329 -115 -496 -6 -65 42 -184 147 -184 162 0 5 9 9 20 9 57 0 125 24 163 59
55 49 65 80 78 228 6 70 13 130 15 131 1 2 20 -2 41 -9 56 -19 169 -15 228 8
28 11 51 19 53 17 2 -1 7 -56 12 -121z m-585 -393 c38 -38 67 -70 64 -70 -2 0
-36 32 -74 70 -38 39 -67 70 -64 70 2 0 36 -31 74 -70z m942 64 c-3 -3 -12 -4
-19 -1 -8 3 -5 6 6 6 11 1 17 -2 13 -5z m-87 -27 c0 -2 -10 -12 -22 -23 l-23
-19 19 23 c18 21 26 27 26 19z m-50 -50 c0 -2 -12 -14 -27 -28 l-28 -24 24 28
c23 25 31 32 31 24z m67 -23 c-3 -3 -12 -4 -19 -1 -8 3 -5 6 6 6 11 1 17 -2
13 -5z m-1277 -18 c0 -2 -8 -10 -17 -17 -16 -13 -17 -12 -4 4 13 16 21 21 21
13z m565 -84 c-3 -3 -11 0 -18 7 -9 10 -8 11 6 5 10 -3 15 -9 12 -12z m-392
-9 c-7 -2 -19 -2 -25 0 -7 3 -2 5 12 5 14 0 19 -2 13 -5z m60 0 c-7 -2 -19 -2
-25 0 -7 3 -2 5 12 5 14 0 19 -2 13 -5z m-56 -39 c-3 -3 -12 -4 -19 -1 -8 3
-5 6 6 6 11 1 17 -2 13 -5z m40 0 c-3 -3 -12 -4 -19 -1 -8 3 -5 6 6 6 11 1 17
-2 13 -5z m670 -20 c-3 -3 -12 -4 -19 -1 -8 3 -5 6 6 6 11 1 17 -2 13 -5z
m-570 -142 c66 -34 109 -78 143 -144 26 -52 30 -72 30 -138 0 -66 -4 -86 -30
-138 -33 -65 -76 -109 -143 -144 -35 -19 -58 -23 -132 -23 -105 0 -155 19
-223 86 -162 161 -101 431 117 515 54 21 185 13 238 -14z"/>
<path d="M2195 1020 c-4 -6 -3 -16 3 -22 6 -6 12 -6 17 2 4 6 3 16 -3 22 -6 6
-12 6 -17 -2z"/>
<path d="M2067 984 c-8 -8 1 -24 14 -24 5 0 9 7 9 15 0 15 -12 20 -23 9z"/>
<path d="M2312 978 c6 -18 28 -21 28 -4 0 9 -7 16 -16 16 -9 0 -14 -5 -12 -12z"/>
<path d="M2276 850 c-40 -38 -78 -70 -84 -70 -7 0 -12 -5 -12 -12 0 -6 -10
-22 -22 -35 -25 -26 -17 -44 9 -21 10 8 26 18 36 21 9 4 17 12 17 18 0 7 32
47 71 91 39 43 68 78 64 78 -4 0 -40 -31 -79 -70z"/>
<path d="M1976 892 c-3 -6 -1 -14 5 -17 15 -10 25 3 12 16 -7 7 -13 7 -17 1z"/>
<path d="M2402 888 c6 -18 28 -21 28 -4 0 9 -7 16 -16 16 -9 0 -14 -5 -12 -12z"/>
<path d="M2442 766 c1 -10 8 -17 13 -17 15 1 12 24 -3 29 -9 3 -13 -2 -10 -12z"/>
<path d="M1935 761 c-7 -12 12 -24 25 -16 11 7 4 25 -10 25 -5 0 -11 -4 -15
-9z"/>
<path d="M1970 635 c0 -8 7 -15 15 -15 8 0 15 7 15 15 0 8 -7 15 -15 15 -8 0
-15 -7 -15 -15z"/>
<path d="M2402 638 c5 -15 28 -18 29 -3 0 6 -7 12 -17 13 -10 3 -15 -1 -12
-10z"/>
<path d="M2067 553 c-12 -11 -8 -23 8 -23 8 0 15 7 15 15 0 16 -12 20 -23 8z"/>
<path d="M2317 553 c-12 -11 -8 -23 8 -23 8 0 15 7 15 15 0 16 -12 20 -23 8z"/>
<path d="M2194 516 c-8 -22 3 -33 18 -18 9 9 9 15 0 24 -9 9 -13 7 -18 -6z"/>
<path d="M953 3213 c71 -2 183 -2 250 0 67 1 10 3 -128 3 -137 0 -192 -2 -122
-3z"/>
<path d="M1583 3213 c71 -2 183 -2 250 0 67 1 10 3 -128 3 -137 0 -192 -2
-122 -3z"/>
<path d="M2058 3213 c6 -2 18 -2 25 0 6 3 1 5 -13 5 -14 0 -19 -2 -12 -5z"/>
<path d="M1090 3114 c0 -9 5 -14 12 -12 18 6 21 28 4 28 -9 0 -16 -7 -16 -16z"/>
<path d="M1162 3118 c6 -18 28 -21 28 -4 0 9 -7 16 -16 16 -9 0 -14 -5 -12
-12z"/>
<path d="M1240 3114 c0 -9 5 -14 12 -12 18 6 21 28 4 28 -9 0 -16 -7 -16 -16z"/>
<path d="M1312 3118 c6 -18 28 -21 28 -4 0 9 -7 16 -16 16 -9 0 -14 -5 -12
-12z"/>
<path d="M1390 3114 c0 -17 22 -14 28 4 2 7 -3 12 -12 12 -9 0 -16 -7 -16 -16z"/>
<path d="M1462 3118 c6 -18 28 -21 28 -4 0 9 -7 16 -16 16 -9 0 -14 -5 -12
-12z"/>
<path d="M1540 3114 c0 -17 22 -14 28 4 2 7 -3 12 -12 12 -9 0 -16 -7 -16 -16z"/>
<path d="M1612 3118 c6 -18 28 -21 28 -4 0 9 -7 16 -16 16 -9 0 -14 -5 -12
-12z"/>
<path d="M1690 3114 c0 -17 22 -14 28 4 2 7 -3 12 -12 12 -9 0 -16 -7 -16 -16z"/>
<path d="M1760 3115 c0 -8 7 -15 15 -15 8 0 15 7 15 15 0 8 -7 15 -15 15 -8 0
-15 -7 -15 -15z"/>
<path d="M1840 3115 c0 -8 5 -15 10 -15 6 0 10 7 10 15 0 8 -4 15 -10 15 -5 0
-10 -7 -10 -15z"/>
<path d="M1910 3115 c0 -8 7 -15 15 -15 8 0 15 7 15 15 0 8 -7 15 -15 15 -8 0
-15 -7 -15 -15z"/>
<path d="M1986 3116 c7 -19 38 -22 32 -3 -3 6 -12 13 -21 15 -12 2 -15 -1 -11
-12z"/>
<path d="M4206 2966 c-25 -29 -46 -58 -46 -64 0 -14 288 -264 299 -260 23 8
290 245 290 257 1 8 -20 38 -45 67 l-46 54 -203 0 -203 0 -46 -54z m206 17
c-11 -16 -29 -36 -39 -45 -21 -20 -18 -22 -77 50 l-19 22 77 0 77 0 -19 -27z
m186 -15 c-20 -24 -40 -42 -44 -41 -5 0 -24 20 -43 42 l-34 41 78 0 78 0 -35
-42z m-286 -30 l19 -28 -76 0 -76 0 37 45 c36 44 37 45 57 28 10 -10 28 -30
39 -45z m178 -26 c-22 -2 -56 -2 -75 0 l-34 3 36 44 37 44 38 -44 38 -44 -40
-3z m199 0 c-22 -2 -55 -2 -75 0 l-35 3 37 44 38 44 37 -44 38 -44 -40 -3z
m-298 -126 c21 -55 37 -101 36 -102 -2 -2 -206 171 -232 197 -7 7 18 9 74 7
l83 -3 39 -99z m123 37 c-14 -38 -33 -88 -41 -112 l-16 -44 -38 99 c-21 54
-38 105 -39 112 0 8 22 12 80 12 l80 0 -26 -67z m206 64 c0 -3 -136 -122 -223
-196 -17 -14 -17 -13 -4 20 8 19 27 67 41 107 l28 72 79 0 c43 0 79 -2 79 -3z"/>
<path d="M1344 2905 c-27 -19 -49 -39 -49 -44 0 -13 97 -82 104 -75 6 5 -17
26 -64 61 -20 14 -20 15 4 31 46 31 66 50 60 56 -3 3 -28 -10 -55 -29z"/>
<path d="M1444 2904 c-27 -19 -50 -38 -52 -43 -4 -11 106 -82 112 -73 2 4 -15
21 -39 37 -25 17 -45 32 -44 35 0 3 20 19 45 36 25 18 42 34 37 37 -5 3 -32
-10 -59 -29z"/>
<path d="M1545 2909 c-22 -16 -44 -34 -48 -38 -10 -10 88 -84 105 -79 6 2 -10
20 -36 38 l-48 35 23 15 c13 8 35 25 49 37 39 34 2 28 -45 -8z"/>
<path d="M1642 2905 c-28 -20 -52 -37 -52 -39 0 -10 103 -77 113 -73 7 2 -7
17 -30 33 -23 16 -42 34 -43 39 0 6 18 21 40 35 37 23 51 40 32 40 -4 0 -31
-16 -60 -35z"/>
<path d="M970 2770 c0 -27 -3 -30 -30 -30 -39 0 -41 -27 -2 -32 23 -2 28 -8
30 -36 4 -42 26 -37 30 6 3 28 7 32 33 32 19 0 29 5 29 15 0 10 -10 15 -30 15
-27 0 -30 3 -30 30 0 20 -5 30 -15 30 -10 0 -15 -10 -15 -30z"/>
<path d="M3894 2698 c-59 -19 -127 -80 -159 -143 -26 -50 -30 -70 -30 -135 0
-65 4 -85 30 -135 81 -159 280 -207 427 -103 31 21 47 16 87 -25 l23 -26 -21
-27 -22 -28 28 -27 c135 -133 342 -311 370 -318 57 -16 105 7 118 56 13 55
-11 87 -188 251 -95 87 -178 162 -185 166 -9 5 -22 0 -38 -15 l-24 -23 -38 35
c-20 19 -38 34 -40 35 -1 1 10 27 24 59 93 202 -52 418 -275 414 -31 -1 -70
-6 -87 -11z m213 -57 c46 -23 100 -80 119 -127 21 -51 18 -150 -7 -200 -28
-59 -88 -110 -150 -128 -65 -20 -83 -20 -145 -1 -228 68 -231 397 -4 470 57
19 135 13 187 -14z m328 -549 c39 -37 108 -100 155 -141 47 -41 93 -87 104
-103 36 -55 -8 -108 -66 -77 -12 7 -61 49 -108 93 -47 45 -118 111 -159 147
l-74 67 34 41 c19 22 36 41 39 41 3 0 37 -31 75 -68z"/>
<path d="M1245 2646 c-122 -30 -222 -111 -278 -225 -30 -62 -32 -72 -32 -176
0 -106 2 -113 34 -180 125 -253 440 -311 658 -120 89 78 141 213 129 333 -7
70 -36 154 -65 192 -34 43 -33 16 1 -56 31 -64 33 -76 33 -174 0 -96 -3 -110
-29 -165 -39 -79 -110 -149 -194 -188 -61 -29 -76 -32 -162 -32 -91 0 -100 2
-172 38 -87 43 -142 98 -185 186 -25 51 -28 66 -28 166 0 101 2 115 28 168 67
136 210 227 358 227 52 0 163 -31 194 -54 22 -17 45 -21 45 -8 0 12 -108 60
-160 72 -59 12 -113 11 -175 -4z"/>
<path d="M1591 2516 l-64 -64 -36 23 c-117 75 -268 54 -360 -50 -47 -54 -64
-101 -64 -180 -1 -84 16 -127 72 -188 60 -64 126 -91 216 -85 80 5 134 29 181
80 85 90 102 207 46 319 l-31 64 59 60 c55 55 73 85 52 85 -4 0 -36 -29 -71
-64z m-138 -45 c26 -12 47 -28 47 -35 0 -6 -38 -49 -85 -96 -76 -76 -100 -110
-77 -110 4 0 48 41 97 90 49 50 93 90 98 90 4 0 19 -25 33 -55 84 -182 -56
-382 -252 -362 -92 9 -174 69 -209 154 -19 45 -19 150 0 196 27 66 93 125 163
148 45 14 134 5 185 -20z"/>
<path d="M4337 2394 c-8 -8 1 -24 14 -24 5 0 9 7 9 15 0 15 -12 20 -23 9z"/>
<path d="M4410 2385 c0 -8 7 -15 15 -15 8 0 15 7 15 15 0 8 -7 15 -15 15 -8 0
-15 -7 -15 -15z"/>
<path d="M4480 2385 c0 -8 7 -15 15 -15 8 0 15 7 15 15 0 8 -7 15 -15 15 -8 0
-15 -7 -15 -15z"/>
<path d="M4560 2384 c0 -9 5 -14 12 -12 18 6 21 28 4 28 -9 0 -16 -7 -16 -16z"/>
<path d="M4630 2385 c0 -8 7 -15 15 -15 8 0 15 7 15 15 0 8 -7 15 -15 15 -8 0
-15 -7 -15 -15z"/>
<path d="M4710 2385 c0 -8 5 -15 10 -15 6 0 10 7 10 15 0 8 -4 15 -10 15 -5 0
-10 -7 -10 -15z"/>
<path d="M4780 2385 c0 -8 7 -15 15 -15 8 0 15 7 15 15 0 8 -7 15 -15 15 -8 0
-15 -7 -15 -15z"/>
<path d="M4860 2385 c0 -8 5 -15 10 -15 6 0 10 7 10 15 0 8 -4 15 -10 15 -5 0
-10 -7 -10 -15z"/>
<path d="M4930 2385 c0 -8 7 -15 15 -15 8 0 15 7 15 15 0 8 -7 15 -15 15 -8 0
-15 -7 -15 -15z"/>
<path d="M5010 2385 c0 -8 5 -15 10 -15 6 0 10 7 10 15 0 8 -4 15 -10 15 -5 0
-10 -7 -10 -15z"/>
<path d="M5080 2385 c0 -8 7 -15 15 -15 8 0 15 7 15 15 0 8 -7 15 -15 15 -8 0
-15 -7 -15 -15z"/>
<path d="M5160 2385 c0 -8 5 -15 10 -15 6 0 10 7 10 15 0 8 -4 15 -10 15 -5 0
-10 -7 -10 -15z"/>
<path d="M5230 2385 c0 -8 7 -15 15 -15 8 0 15 7 15 15 0 8 -7 15 -15 15 -8 0
-15 -7 -15 -15z"/>
<path d="M4000 1741 c-132 -33 -186 -51 -188 -62 -2 -10 -29 -22 -77 -34 -41
-10 -73 -20 -71 -22 2 -2 33 -12 69 -22 36 -11 74 -28 85 -39 11 -11 46 -24
84 -31 36 -7 116 -27 179 -45 l114 -31 3 -57 3 -58 -168 -3 -168 -3 168 -2
167 -2 0 -88 c0 -55 -4 -92 -12 -100 -9 -9 -6 -12 17 -12 23 0 26 3 17 12 -8
8 -12 45 -12 100 l0 88 73 2 72 2 -70 5 -70 6 -3 223 c-2 168 -5 222 -15 221
-6 0 -95 -22 -197 -48z m-103 -87 c-3 -3 -12 -4 -19 -1 -8 3 -5 6 6 6 11 1 17
-2 13 -5z m-123 -33 c4 -5 -3 -7 -14 -4 -23 6 -26 13 -6 13 8 0 17 -4 20 -9z
m184 -75 c12 -3 11 -4 -3 -3 -12 1 -20 10 -21 22 -1 14 0 15 3 3 2 -9 12 -19
21 -22z m229 -62 c-3 -3 -12 -4 -19 -1 -8 3 -5 6 6 6 11 1 17 -2 13 -5z"/>
<path d="M640 1745 c0 -8 7 -15 15 -15 8 0 15 7 15 15 0 8 -7 15 -15 15 -8 0
-15 -7 -15 -15z"/>
<path d="M710 1745 c0 -8 7 -15 15 -15 8 0 15 7 15 15 0 8 -7 15 -15 15 -8 0
-15 -7 -15 -15z"/>
<path d="M780 1745 c0 -8 7 -15 15 -15 8 0 15 7 15 15 0 8 -7 15 -15 15 -8 0
-15 -7 -15 -15z"/>
<path d="M850 1745 c0 -8 5 -15 10 -15 6 0 10 7 10 15 0 8 -4 15 -10 15 -5 0
-10 -7 -10 -15z"/>
<path d="M920 1745 c0 -8 5 -15 10 -15 6 0 10 7 10 15 0 8 -4 15 -10 15 -5 0
-10 -7 -10 -15z"/>
<path d="M987 1753 c-12 -11 -8 -23 8 -23 8 0 15 7 15 15 0 16 -12 20 -23 8z"/>
<path d="M1050 1745 c0 -8 7 -15 15 -15 8 0 15 7 15 15 0 8 -7 15 -15 15 -8 0
-15 -7 -15 -15z"/>
<path d="M1120 1745 c0 -8 7 -15 15 -15 8 0 15 7 15 15 0 8 -7 15 -15 15 -8 0
-15 -7 -15 -15z"/>
<path d="M1190 1745 c0 -8 5 -15 10 -15 6 0 10 7 10 15 0 8 -4 15 -10 15 -5 0
-10 -7 -10 -15z"/>
<path d="M1260 1745 c0 -8 5 -15 10 -15 6 0 10 7 10 15 0 8 -4 15 -10 15 -5 0
-10 -7 -10 -15z"/>
<path d="M1330 1745 c0 -8 5 -15 10 -15 6 0 10 7 10 15 0 8 -4 15 -10 15 -5 0
-10 -7 -10 -15z"/>
<path d="M1397 1754 c-8 -8 1 -24 14 -24 5 0 9 7 9 15 0 15 -12 20 -23 9z"/>
<path d="M1460 1745 c0 -8 7 -15 15 -15 8 0 15 7 15 15 0 8 -7 15 -15 15 -8 0
-15 -7 -15 -15z"/>
<path d="M618 1623 c57 -2 147 -2 200 0 53 1 7 3 -103 3 -110 0 -154 -2 -97
-3z"/>
<path d="M1473 1585 c-12 -15 -32 -24 -60 -28 -35 -4 -45 -1 -64 19 -20 22
-23 22 -51 8 -26 -13 -28 -19 -23 -46 9 -41 -34 -88 -81 -88 -27 0 -34 -5 -42
-30 -9 -25 -8 -32 12 -47 16 -12 25 -32 29 -61 4 -36 2 -45 -20 -61 -23 -19
-24 -21 -8 -50 13 -26 19 -30 44 -25 40 8 91 -37 91 -80 0 -26 6 -34 30 -43
26 -10 32 -9 47 12 12 15 32 24 60 28 35 4 45 1 64 -19 20 -22 24 -22 50 -8
25 12 28 18 22 45 -8 41 36 89 83 89 28 0 33 4 39 32 6 25 3 35 -13 47 -30 24
-35 90 -9 119 17 18 19 27 11 50 -9 23 -15 27 -44 24 -44 -3 -90 38 -90 83 0
25 -6 33 -30 42 -26 10 -32 9 -47 -12z m46 -5 c13 -6 17 -17 14 -34 -7 -35 61
-97 99 -89 37 7 56 -27 28 -52 -15 -13 -20 -31 -20 -66 0 -40 4 -50 26 -66 22
-17 25 -23 16 -40 -8 -14 -18 -19 -36 -16 -35 7 -98 -61 -90 -99 8 -38 -26
-56 -51 -28 -14 15 -31 20 -72 20 -29 0 -53 -4 -53 -8 0 -5 -6 -16 -13 -26
-19 -26 -58 -6 -50 25 4 15 -5 31 -33 60 -33 34 -42 38 -70 33 -26 -5 -32 -2
-37 15 -3 12 2 26 14 37 14 12 19 31 19 65 0 40 -4 50 -26 66 -22 17 -25 23
-16 40 8 14 18 19 36 16 37 -7 96 60 89 103 -4 26 -1 32 16 37 15 4 26 -1 34
-14 9 -15 23 -19 64 -19 45 0 55 4 69 25 19 28 19 28 43 15z"/>
<path d="M1306 1445 c-45 -44 -62 -104 -47 -157 15 -50 31 -49 18 1 -15 54 4
111 48 150 19 17 35 33 35 36 0 14 -23 2 -54 -30z"/>
<path d="M1381 1406 c-26 -15 -50 -51 -51 -79 -1 -54 63 -106 115 -93 30 8 64
42 72 73 8 34 -15 82 -48 98 -34 18 -57 18 -88 1z m99 -26 c12 -12 20 -33 20
-55 0 -22 -8 -43 -20 -55 -12 -12 -33 -20 -55 -20 -22 0 -43 8 -55 20 -12 12
-20 33 -20 55 0 22 8 43 20 55 12 12 33 20 55 20 22 0 43 -8 55 -20z"/>
<path d="M525 1560 c4 -6 113 -10 296 -10 186 0 289 4 289 10 0 6 -105 10
-296 10 -194 0 -293 -3 -289 -10z"/>
<path d="M4458 1333 c6 -2 18 -2 25 0 6 3 1 5 -13 5 -14 0 -19 -2 -12 -5z"/>
<path d="M3763 1183 c71 -2 183 -2 250 0 67 1 10 3 -128 3 -137 0 -192 -2
-122 -3z"/>
<path d="M4398 1183 c67 -2 177 -2 245 0 67 1 12 3 -123 3 -135 0 -190 -2
-122 -3z"/>
<path d="M1975 1107 l-27 -23 21 -24 c11 -14 20 -20 21 -14 0 5 -6 16 -12 23
-11 10 -8 16 12 33 l24 20 18 -22 c12 -15 18 -17 18 -8 0 17 -20 38 -36 38 -7
0 -25 -10 -39 -23z"/>
<path d="M4330 975 c0 -32 -2 -35 -31 -35 -38 0 -35 -24 4 -28 22 -3 27 -8 27
-33 0 -19 5 -29 15 -29 10 0 15 10 15 30 0 27 3 30 30 30 39 0 41 27 3 32 -23
2 -29 8 -31 36 -5 46 -32 43 -32 -3z"/>
<path d="M3720 979 c0 -12 12 -43 27 -70 31 -57 126 -134 186 -150 l38 -10 -3
-72 -3 -72 -32 -3 c-61 -6 -33 -22 37 -22 68 0 98 15 43 22 -27 3 -28 5 -31
75 l-3 72 38 10 c60 16 155 93 186 150 15 27 27 58 27 70 0 21 -2 21 -255 21
-253 0 -255 0 -255 -21z m75 -57 c14 -61 3 -65 -32 -12 -30 43 -30 72 -1 68
17 -2 24 -14 33 -56z m349 21 c-13 -73 -29 -106 -67 -137 -34 -27 -46 -31
-102 -31 -56 0 -68 4 -102 31 -38 31 -54 64 -67 137 l-7 37 176 0 176 0 -7
-37z m66 21 c0 -19 -16 -50 -43 -84 l-20 -25 7 54 c4 30 9 58 12 63 9 15 44 8
44 -8z"/>
<path d="M1688 943 c6 -2 18 -2 25 0 6 3 1 5 -13 5 -14 0 -19 -2 -12 -5z"/>
<path d="M1768 943 c6 -2 18 -2 25 0 6 3 1 5 -13 5 -14 0 -19 -2 -12 -5z"/>
<path d="M3210 940 c0 -6 70 -10 191 -10 124 0 188 3 184 10 -4 6 -78 10 -191
10 -116 0 -184 -4 -184 -10z"/>
<path d="M2910 772 c0 -5 21 -23 47 -41 l46 -33 -46 -30 c-40 -26 -59 -48 -42
-48 9 0 115 73 115 79 0 7 -105 81 -114 81 -3 0 -6 -4 -6 -8z"/>
<path d="M3016 772 c-2 -4 15 -21 39 -37 25 -17 45 -32 45 -35 0 -3 -20 -18
-45 -35 -24 -16 -41 -33 -39 -37 5 -8 114 60 114 72 0 12 -109 80 -114 72z"/>
<path d="M2710 762 c0 -4 18 -18 40 -32 22 -14 40 -29 40 -35 0 -6 -18 -21
-40 -35 -37 -23 -51 -40 -32 -40 15 0 104 67 101 76 -3 11 -90 74 -101 74 -5
0 -8 -3 -8 -8z"/>
<path d="M2840 740 c19 -17 38 -30 42 -30 22 0 4 -28 -32 -50 -37 -23 -51 -40
-32 -40 9 0 112 69 112 75 0 7 -104 75 -115 75 -5 -1 6 -14 25 -30z"/>
<path d="M962 669 c2 -6 8 -10 13 -10 5 0 11 4 13 10 2 6 -4 11 -13 11 -9 0
-15 -5 -13 -11z"/>
<path d="M1032 669 c2 -6 8 -10 13 -10 5 0 11 4 13 10 2 6 -4 11 -13 11 -9 0
-15 -5 -13 -11z"/>
<path d="M1100 665 c0 -8 5 -15 10 -15 6 0 10 7 10 15 0 8 -4 15 -10 15 -5 0
-10 -7 -10 -15z"/>
<path d="M1170 665 c0 -8 5 -15 10 -15 6 0 10 7 10 15 0 8 -4 15 -10 15 -5 0
-10 -7 -10 -15z"/>
<path d="M1240 665 c0 -8 5 -15 10 -15 6 0 10 7 10 15 0 8 -4 15 -10 15 -5 0
-10 -7 -10 -15z"/>
<path d="M1302 669 c2 -6 8 -10 13 -10 5 0 11 4 13 10 2 6 -4 11 -13 11 -9 0
-15 -5 -13 -11z"/>
<path d="M1372 669 c2 -6 8 -10 13 -10 5 0 11 4 13 10 2 6 -4 11 -13 11 -9 0
-15 -5 -13 -11z"/>
<path d="M1440 664 c0 -17 22 -14 28 4 2 7 -3 12 -12 12 -9 0 -16 -7 -16 -16z"/>
<path d="M1510 665 c0 -8 5 -15 10 -15 6 0 10 7 10 15 0 8 -4 15 -10 15 -5 0
-10 -7 -10 -15z"/>
<path d="M1580 665 c0 -8 5 -15 10 -15 6 0 10 7 10 15 0 8 -4 15 -10 15 -5 0
-10 -7 -10 -15z"/>
<path d="M1650 665 c0 -8 5 -15 10 -15 6 0 10 7 10 15 0 8 -4 15 -10 15 -5 0
-10 -7 -10 -15z"/>
<path d="M1712 669 c2 -6 8 -10 13 -10 5 0 11 4 13 10 2 6 -4 11 -13 11 -9 0
-15 -5 -13 -11z"/>
<path d="M1782 669 c2 -6 8 -10 13 -10 5 0 11 4 13 10 2 6 -4 11 -13 11 -9 0
-15 -5 -13 -11z"/>
<path d="M2763 504 c-35 -25 -63 -49 -63 -52 0 -7 134 -102 144 -102 3 0 6 6
6 13 0 6 -23 27 -50 45 -28 17 -50 37 -50 42 0 6 23 26 50 46 49 35 62 54 38
54 -7 -1 -41 -21 -75 -46z"/>
<path d="M2810 450 c0 -5 11 -10 25 -10 14 0 25 5 25 10 0 6 -11 10 -25 10
-14 0 -25 -4 -25 -10z"/>
<path d="M2920 450 c0 -5 11 -10 25 -10 14 0 25 5 25 10 0 6 -11 10 -25 10
-14 0 -25 -4 -25 -10z"/>
<path d="M3030 450 c0 -5 11 -10 25 -10 14 0 25 5 25 10 0 6 -11 10 -25 10
-14 0 -25 -4 -25 -10z"/>
<path d="M3153 449 c14 -8 22 -8 30 0 8 8 3 11 -18 11 -26 -1 -28 -2 -12 -11z"/>
<path d="M3255 450 c3 -5 15 -10 26 -10 10 0 19 5 19 10 0 6 -12 10 -26 10
-14 0 -23 -4 -19 -10z"/>
<path d="M3364 451 c3 -5 15 -7 26 -4 28 7 25 13 -6 13 -14 0 -23 -4 -20 -9z"/>
<path d="M3483 453 c9 -2 23 -2 30 0 6 3 -1 5 -18 5 -16 0 -22 -2 -12 -5z"/>
<path d="M3580 450 c0 -5 9 -10 19 -10 11 0 23 5 26 10 4 6 -5 10 -19 10 -14
0 -26 -4 -26 -10z"/>
<path d="M3694 451 c3 -5 15 -7 26 -4 28 7 25 13 -6 13 -14 0 -23 -4 -20 -9z"/>
</g>
</svg>
