<?xml version="1.0" encoding="UTF-8"?>
<svg xmlns="http://www.w3.org/2000/svg" xmlns:xlink="http://www.w3.org/1999/xlink" width="50px" height="50px" viewBox="0 0 50 50" version="1.1">
<g id="surface1">
<path style=" stroke:none;fill-rule:nonzero;fill:rgb(0%,0%,0%);fill-opacity:1;" d="M 40.300781 9.496094 C 40.035156 9.523438 39.621094 9.648438 39.136719 9.839844 C 38.894531 9.9375 38.804688 9.953125 38.773438 9.917969 C 38.742188 9.878906 38.738281 9.847656 38.757812 9.710938 C 38.773438 9.574219 38.769531 9.519531 38.742188 9.53125 C 38.734375 9.535156 38.464844 9.695312 38.148438 9.890625 C 37.324219 10.390625 36.492188 10.9375 35.664062 11.523438 C 35.027344 11.972656 35.105469 11.917969 34.542969 12.34375 C 33.949219 12.792969 33.886719 12.839844 33.382812 13.25 C 32.5625 13.910156 31.921875 14.457031 31.15625 15.160156 C 30.660156 15.617188 30.519531 15.746094 30.042969 16.214844 C 29.90625 16.347656 29.742188 16.507812 29.679688 16.570312 C 29.398438 16.84375 28.6875 17.585938 28.257812 18.054688 C 27.796875 18.554688 27.226562 19.214844 26.648438 19.914062 C 26.449219 20.15625 26.070312 20.613281 25.804688 20.925781 C 24.203125 22.84375 23.453125 23.761719 22.640625 24.804688 C 22.148438 25.441406 21.574219 26.214844 21.507812 26.328125 C 21.472656 26.390625 21.441406 26.4375 21.4375 26.4375 C 21.433594 26.4375 21.414062 26.402344 21.394531 26.363281 C 21.351562 26.273438 21.234375 26.125 21.132812 26.027344 C 21.09375 25.992188 20.964844 25.828125 20.847656 25.667969 C 20.222656 24.8125 20.09375 24.644531 19.832031 24.320312 C 19.195312 23.523438 18.65625 23.011719 18.242188 22.800781 C 18.199219 22.78125 18.160156 22.761719 18.15625 22.761719 C 18.148438 22.761719 18.257812 22.875 18.394531 23.015625 C 18.679688 23.308594 19 23.644531 19 23.65625 C 19 23.667969 18.773438 23.480469 18.570312 23.300781 C 18.472656 23.214844 18.097656 22.847656 17.730469 22.480469 C 16.878906 21.625 16.609375 21.371094 16.273438 21.101562 L 16.195312 21.039062 L 16.148438 21.082031 C 16.089844 21.140625 16.035156 21.148438 15.933594 21.113281 C 15.890625 21.097656 15.820312 21.066406 15.773438 21.039062 C 15.671875 20.984375 15.667969 20.980469 16.054688 21.308594 C 16.648438 21.804688 17.007812 22.125 17.332031 22.441406 C 17.523438 22.628906 17.839844 22.964844 17.863281 23.003906 C 17.871094 23.015625 17.84375 23.050781 17.796875 23.097656 L 17.71875 23.175781 L 17.582031 23.054688 C 17.503906 22.984375 17.207031 22.699219 16.917969 22.414062 C 16.207031 21.710938 15.972656 21.492188 15.664062 21.25 L 15.53125 21.148438 L 15.476562 21.214844 C 15.445312 21.25 15.394531 21.304688 15.367188 21.335938 L 15.316406 21.390625 L 15.273438 21.371094 C 15.25 21.359375 15.1875 21.320312 15.132812 21.28125 C 15.007812 21.195312 15.03125 21.214844 15.261719 21.414062 C 15.597656 21.699219 15.914062 21.976562 15.914062 21.988281 C 15.914062 21.996094 15.871094 22.050781 15.816406 22.109375 C 15.75 22.179688 15.710938 22.210938 15.691406 22.210938 C 15.65625 22.210938 15.507812 22.105469 15.289062 21.921875 C 15.03125 21.703125 15.058594 21.71875 14.996094 21.742188 C 14.96875 21.753906 14.90625 21.765625 14.863281 21.769531 C 14.71875 21.78125 14.691406 21.8125 14.734375 21.894531 C 14.769531 21.960938 14.808594 22.003906 14.976562 22.144531 C 15.09375 22.246094 15.433594 22.546875 15.59375 22.691406 C 15.613281 22.710938 15.539062 22.65625 15.425781 22.570312 C 14.691406 22.019531 13.988281 21.675781 13.605469 21.675781 C 13.527344 21.675781 13.4375 21.699219 13.4375 21.722656 C 13.4375 21.726562 13.457031 21.742188 13.484375 21.757812 C 13.554688 21.796875 13.664062 21.910156 13.722656 22.007812 C 13.75 22.054688 13.800781 22.125 13.832031 22.164062 L 13.894531 22.230469 L 13.75 22.152344 C 13.558594 22.046875 13.136719 21.839844 12.988281 21.777344 C 12.800781 21.699219 12.664062 21.660156 12.585938 21.664062 C 12.523438 21.667969 12.519531 21.671875 12.515625 21.699219 C 12.511719 21.71875 12.527344 21.753906 12.550781 21.789062 C 12.609375 21.875 12.871094 22.125 13.1875 22.394531 C 15 23.921875 16.511719 25.429688 17.636719 26.828125 C 18.121094 27.421875 18.433594 27.867188 18.792969 28.46875 C 19.050781 28.894531 19.070312 28.929688 19.277344 29.390625 C 19.480469 29.832031 19.546875 30 20.179688 31.679688 C 20.558594 32.675781 20.871094 33.5 20.875 33.503906 C 20.878906 33.507812 21.203125 32.996094 21.59375 32.367188 C 22.785156 30.445312 23.125 29.902344 23.515625 29.328125 C 25.664062 26.144531 28.433594 22.792969 31.230469 19.980469 C 34.109375 17.089844 37.023438 14.726562 40.0625 12.824219 C 40.707031 12.417969 41.046875 12.222656 42.074219 11.65625 L 42.863281 11.222656 L 42.828125 11.199219 C 42.769531 11.164062 42.761719 11.089844 42.769531 10.8125 C 42.785156 10.449219 42.742188 10.324219 42.605469 10.324219 C 42.574219 10.324219 41.480469 10.875 41.21875 11.023438 C 41.097656 11.09375 41.074219 11.097656 41.003906 11.066406 C 40.921875 11.035156 40.90625 10.972656 40.949219 10.796875 C 40.984375 10.648438 40.984375 10.582031 40.941406 10.542969 C 40.863281 10.472656 40.679688 10.488281 40.316406 10.601562 C 40.1875 10.640625 40.144531 10.648438 40.128906 10.640625 C 40.109375 10.628906 40.105469 10.617188 40.109375 10.601562 C 40.121094 10.554688 40.269531 10.398438 40.5 10.195312 C 40.742188 9.976562 40.875 9.835938 40.875 9.796875 C 40.875 9.761719 40.828125 9.679688 40.777344 9.625 C 40.679688 9.515625 40.519531 9.472656 40.300781 9.496094 Z M 40.300781 9.496094 "/>
<path style=" stroke:none;fill-rule:nonzero;fill:rgb(0%,0%,0%);fill-opacity:1;" d="M 7.074219 12.878906 C 7.074219 13.558594 7.082031 15.605469 7.085938 17.417969 C 7.117188 25.1875 7.175781 30.472656 7.304688 36.523438 C 7.316406 36.996094 7.332031 38.082031 7.34375 38.945312 C 7.355469 39.800781 7.367188 40.507812 7.367188 40.507812 C 7.367188 40.507812 8.46875 40.496094 9.8125 40.480469 C 15.046875 40.417969 16.910156 40.414062 26.261719 40.453125 C 30.570312 40.46875 33.328125 40.453125 37.367188 40.398438 C 38.792969 40.382812 39.957031 40.363281 39.957031 40.363281 C 39.957031 40.363281 39.957031 39.433594 39.957031 38.296875 C 39.957031 36.777344 39.960938 35.863281 39.980469 34.832031 C 40.003906 33.347656 40.003906 31.539062 39.976562 31 C 39.941406 30.320312 39.898438 29.839844 39.832031 29.457031 C 39.816406 29.375 39.8125 29.019531 39.804688 27.699219 C 39.796875 25.261719 39.765625 22.582031 39.742188 22.027344 L 39.734375 21.839844 L 39.6875 21.832031 C 39.558594 21.808594 39.527344 21.699219 39.453125 21.042969 C 39.445312 20.980469 39.441406 21.089844 39.433594 21.417969 C 39.421875 21.972656 39.402344 22.234375 39.367188 22.285156 C 39.351562 22.304688 39.351562 22.304688 39.335938 22.269531 C 39.300781 22.175781 39.261719 21.753906 39.234375 21.222656 L 39.21875 20.902344 L 39.089844 20.894531 C 39.015625 20.890625 38.929688 20.886719 38.890625 20.886719 L 38.824219 20.886719 L 38.832031 21.300781 C 38.835938 21.53125 38.839844 21.953125 38.84375 22.238281 L 38.851562 22.761719 L 38.539062 22.761719 L 38.527344 22.714844 C 38.5 22.617188 38.488281 22.324219 38.480469 21.625 L 38.472656 20.90625 L 38.441406 20.878906 C 38.425781 20.863281 38.375 20.777344 38.332031 20.6875 C 38.242188 20.503906 38.230469 20.488281 38.199219 20.488281 C 38.167969 20.488281 38.140625 20.578125 38.117188 20.769531 C 38.105469 20.902344 38.101562 21.144531 38.097656 22.101562 C 38.097656 22.890625 38.09375 23.199219 38.085938 23.050781 C 38.058594 22.484375 38.003906 21.832031 37.945312 21.375 C 37.835938 20.582031 37.671875 19.941406 37.519531 19.707031 C 37.421875 19.5625 37.363281 19.617188 37.363281 19.84375 L 37.363281 19.960938 L 37.070312 20.238281 L 36.777344 20.519531 L 36.769531 20.757812 C 36.757812 21.234375 36.703125 32.996094 36.699219 35.785156 L 36.699219 37.085938 L 32.792969 37.085938 C 28.816406 37.085938 17.679688 37.109375 13.207031 37.121094 C 11.851562 37.128906 10.742188 37.128906 10.738281 37.128906 C 10.734375 37.125 10.726562 36.234375 10.722656 35.152344 C 10.710938 32.117188 10.6875 27.558594 10.675781 24.917969 C 10.667969 23.605469 10.652344 20.910156 10.644531 18.925781 C 10.632812 16.941406 10.621094 15.289062 10.617188 15.253906 C 10.613281 15.203125 10.613281 15.1875 10.632812 15.183594 C 10.644531 15.175781 11.558594 15.167969 12.667969 15.164062 C 15.875 15.144531 18.933594 15.125 20.070312 15.113281 L 21.117188 15.105469 L 21.238281 15.070312 C 21.632812 14.964844 22.074219 14.691406 22.171875 14.492188 C 22.230469 14.382812 22.199219 14.28125 22.089844 14.226562 C 21.972656 14.167969 21.925781 14.164062 21.320312 14.164062 L 20.75 14.164062 L 20.652344 14.132812 C 20.484375 14.078125 20.449219 14.023438 20.527344 13.957031 C 20.546875 13.9375 20.648438 13.882812 20.75 13.828125 C 20.941406 13.734375 21.023438 13.675781 21.023438 13.640625 C 21.023438 13.609375 20.980469 13.570312 20.921875 13.546875 C 20.898438 13.535156 20.734375 13.488281 20.554688 13.441406 C 20.085938 13.320312 19.824219 13.28125 19.28125 13.25 C 18.257812 13.191406 17.703125 13.144531 17.65625 13.117188 C 17.597656 13.078125 17.941406 13.0625 18.9375 13.054688 C 19.644531 13.046875 19.78125 13.042969 19.722656 13.03125 C 19.644531 13.015625 19.628906 13.007812 19.640625 12.988281 C 19.648438 12.984375 20.042969 12.976562 20.515625 12.972656 C 21.335938 12.964844 21.578125 12.953125 21.65625 12.925781 C 21.683594 12.914062 21.6875 12.90625 21.6875 12.847656 C 21.6875 12.769531 21.652344 12.691406 21.59375 12.636719 C 21.320312 12.398438 20.292969 12.234375 18.226562 12.101562 C 17.808594 12.074219 17.640625 12.050781 17.578125 12.011719 C 17.5 11.964844 17.535156 11.921875 17.75 11.800781 C 17.863281 11.734375 17.949219 11.671875 17.949219 11.648438 C 17.949219 11.640625 15.710938 11.636719 12.511719 11.636719 L 7.074219 11.636719 Z M 7.074219 12.878906 "/>
</g>
</svg>
